<svg xmlns="http://www.w3.org/2000/svg" width="24.686695098876953" height="23.828325271606445" style=""><rect id="backgroundrect" width="100%" height="100%" x="0" y="0" fill="none" stroke="none"/><g class="currentLayer" style=""><title>Layer 1</title><path fill="" fill-opacity="1" stroke="none" stroke-opacity="1" stroke-width="1" stroke-dasharray="none" stroke-linejoin="miter" stroke-linecap="butt" stroke-dashoffset="" fill-rule="nonzero" opacity="1" marker-start="" marker-mid="" marker-end="" d="M6.244897961616516,8.520408043407258 C6.244897961616516,4.534614821685926 9.258157637237844,1.3061223120916452 12.978231310844421,1.3061223120916452 C16.698304984451,1.3061223120916452 19.711564660072327,4.534614821685926 19.711564660072327,8.520408043407258 C19.711564660072327,12.506201265128592 16.698304984451,15.73469377472287 12.978231310844421,15.73469377472287 C9.258157637237844,15.73469377472287 6.244897961616516,12.506201265128592 6.244897961616516,8.520408043407258 z" id="svg_2" class=""/><path fill="" fill-opacity="1" stroke="none" stroke-opacity="1" stroke-width="1" stroke-dasharray="none" stroke-linejoin="miter" stroke-linecap="butt" stroke-dashoffset="" fill-rule="nonzero" opacity="1" marker-start="" marker-mid="" marker-end="" d="M12,13 C12,11.895027624309392 12.223756906077348,11 12.5,11 C12.776243093922652,11 13,11.895027624309392 13,13 C13,14.104972375690608 12.776243093922652,15 12.5,15 C12.223756906077348,15 12,14.104972375690608 12,13 Z" id="svg_4"/><rect fill="" stroke-dashoffset="" fill-rule="nonzero" id="svg_9" x="6.244897842407227" y="7.163265228271484" width="13.43277645111084" height="16.750898361206055" style="color: rgb(0, 0, 0);" class=""/><rect fill="#ffffff" stroke-dashoffset="" fill-rule="nonzero" id="svg_11" x="11.918368446506566" y="2.448979526758194" width="1.8163266343909015" height="9.204081129451554" style="color: rgb(0, 0, 0);" class=""/><rect fill="#ffffff" stroke-dashoffset="" fill-rule="nonzero" id="svg_13" x="12" y="7" width="1" height="0" style="color: rgb(0, 0, 0);"/><rect fill="#ffffff" stroke-dashoffset="" fill-rule="nonzero" id="svg_15" x="12" y="5" width="0" height="0" style="color: rgb(0, 0, 0);"/><rect fill="#ffffff" stroke-dashoffset="" fill-rule="nonzero" id="svg_17" x="9.755102157592773" y="4.591837015416871" width="6.224489762666949" height="1.734693987704728" style="color: rgb(0, 0, 0);" class=""/><rect fill="#ffffff" stroke-dashoffset="" fill-rule="nonzero" id="svg_19" x="11" y="5" width="1" height="0" style="color: rgb(0, 0, 0);"/><rect fill="#ffffff" stroke-dashoffset="" fill-rule="nonzero" id="svg_21" x="10" y="5" width="1" height="0" style="color: rgb(0, 0, 0);"/><path fill="#ffffff" fill-opacity="1" stroke="none" stroke-opacity="1" stroke-width="1" stroke-dasharray="none" stroke-linejoin="miter" stroke-linecap="butt" stroke-dashoffset="" fill-rule="nonzero" opacity="1" marker-start="" marker-mid="" marker-end="" d="M8.591836780309677,14.714285522699356 C8.591836780309677,14.161799334854052 9.039350592464373,13.714285522699356 9.591836780309677,13.714285522699356 C10.144322968154981,13.714285522699356 10.591836780309677,14.161799334854052 10.591836780309677,14.714285522699356 C10.591836780309677,15.26677171054466 10.144322968154981,15.714285522699356 9.591836780309677,15.714285522699356 C9.039350592464373,15.714285522699356 8.591836780309677,15.26677171054466 8.591836780309677,14.714285522699356 z" id="svg_26" class="selected"/><path fill="#ffffff" fill-opacity="1" stroke="none" stroke-opacity="1" stroke-width="1" stroke-dasharray="none" stroke-linejoin="miter" stroke-linecap="butt" stroke-dashoffset="" fill-rule="nonzero" opacity="1" marker-start="" marker-mid="" marker-end="" d="M15.040816694498062,14.795918494462967 C15.040816694498062,14.243432306617663 15.488330506652758,13.795918494462967 16.040816694498062,13.795918494462967 C16.593302882343366,13.795918494462967 17.040816694498062,14.243432306617663 17.040816694498062,14.795918494462967 C17.040816694498062,15.34840468230827 16.593302882343366,15.795918494462967 16.040816694498062,15.795918494462967 C15.488330506652758,15.795918494462967 15.040816694498062,15.34840468230827 15.040816694498062,14.795918494462967 z" class="" id="svg_31"/><polyline fill="#919191" stroke="#000000" stroke-dashoffset="" fill-rule="nonzero" opacity="0.54" marker-start="" marker-mid="" marker-end="" id="svg_3" points="10.571427813598088,9.529251746742101 10.571427813598088,9.529251746742101 " style="color: rgb(0, 0, 0);"/><polyline fill="#919191" stroke="#000000" stroke-dashoffset="" fill-rule="nonzero" opacity="0.54" marker-start="" marker-mid="" marker-end="" id="svg_6" points="10.816325772781756,8.957823175313532 10.816325772781756,8.957823175313532 " style="color: rgb(0, 0, 0);"/><polyline fill="#919191" stroke="#000000" stroke-dashoffset="" fill-rule="nonzero" opacity="0.54" marker-start="" marker-mid="" marker-end="" id="svg_8" points="15.387754344210332,9.529251746742101 15.387754344210332,9.529251746742101 " style="color: rgb(0, 0, 0);"/></g></svg>