<svg xmlns="http://www.w3.org/2000/svg" xmlns:xlink="http://www.w3.org/1999/xlink" version="1.1" style="" xml:space="preserve" width="476.4187927246094" height="478.1282043457031"><rect id="backgroundrect" width="100%" height="100%" x="0" y="0" fill="none" stroke="none"/>
















<g class="currentLayer" style=""><title>Layer 1</title><g id="svg_1" class="selected" fill="#242424" fill-opacity="1" stroke="none" filter="">
	<path d="M450.3853703686595,170.87972563410918 c-0.7986982655525208,-3.348031247019768 -2.9040048587322236,-6.1753940232992175 -5.785715955197811,-7.807981212496758 c-2.8739567443728444,-1.6223579461574555 -6.271332255005836,-1.8975245839357375 -9.353687211871147,-0.7549181363582612 c-27.023917043209075,10.0195435577631 -68.71906824588775,16.467035445928573 -115.61351252675055,16.467035445928573 c-11.400836164355278,0 -22.388753079771995,-0.4592930124998093 -33.04226356118917,-1.1825004954338074 c-5.508497867882252,26.264604429721835 -14.310656787157058,50.38106782102585 -25.553498027622698,71.62106806945802 c0.5466818225383759,-0.023527258992195137 1.06913129478693,-0.11763629496097566 1.6206595873832703,-0.11763629496097566 c14.572366170287133,0 26.3822444075346,-1.2827470772266387 26.3822444075346,9.076407349467276 c0,10.359154426693918 -11.81084753125906,28.440364424347877 -26.3822444075346,28.440364424347877 c-8.488107659518718,0 -15.961364488899706,-2.8989674775600434 -20.78360219657421,-7.326183865308762 c-14.563642524182796,19.08162996697426 -31.577660309672357,34.12782355463505 -50.31508284777403,44.07780825972557 c21.125762982666494,75.04274986636639 70.51710863739252,127.685503323555 128.07378704577684,127.685503323555 c76.78650230437516,0 139.0326251408458,-93.683499458313 139.0326251408458,-209.24837270367146 C458.66411052167416,216.88165450967472 455.7145488443971,193.02705974019685 450.3853703686595,170.87972563410918 zM375.03923896551134,389.9594238236062 c-0.24620067894458772,1.1027123997211457 -1.0235744762420655,2.001862862944603 -2.045210364460945,2.3557946721315384 c-1.0235744762420655,0.3610922793149948 -2.1498941177129747,0.1340030838251114 -2.9718554395437238,-0.5994336421489717 c-10.830891285538673,-9.604236290335654 -29.25523185789585,-15.985238098740579 -50.388749192655084,-15.985238098740579 c-21.13545592278242,0 -39.5597964951396,6.381001808404923 -50.38971848666667,15.985238098740579 c-0.8229306158423425,0.7252533315420151 -1.9502195513248444,0.953365451335907 -2.9718554395437238,0.5994336421489717 c-1.0226051822304725,-0.36211520361900335 -1.7990096855163575,-1.253082272410393 -2.045210364460945,-2.3557946721315384 c-0.8965969607234001,-4.026230060577393 -1.4481252533197402,-8.17725688624382 -1.4481252533197402,-12.49502037346363 c0,-33.13763282835484 25.456568626463415,-60.00064797592163 56.85587883800269,-60.00064797592163 c31.399310211539266,0 56.853940249979495,26.864038071870805 56.853940249979495,60.00064797592163 C376.4863949248195,381.7821669373623 375.93486663222313,385.9342166873328 375.03923896551134,389.9594238236062 zM376.606587382257,286.6205418597571 c-14.572366170287133,0 -26.3822444075346,-18.081209997653964 -26.3822444075346,-28.440364424347877 c0,-10.359154426693918 11.81084753125906,-9.076407349467276 26.3822444075346,-9.076407349467276 c14.57139687627554,0 26.3822444075346,8.399231460213661 26.3822444075346,18.75838588690758 C402.98786249578,278.2213103995434 391.1779842585325,286.6205418597571 376.606587382257,286.6205418597571 z" id="svg_2" fill="#242424" fill-opacity="1" stroke="none" stroke-opacity="1" filter=""/>
	<path d="M278.0652502816916,111.72196728469052 c0,-24.92559651577473 -2.9495616772770883,-48.78121420955658 -8.27874015301466,-70.92752539134025 c-0.7986982655525208,-3.348031247019768 -2.9040048587322236,-6.177439871907234 -5.785715955197811,-7.807981212496758 c-1.702080284357071,-0.9605259214639664 -3.5912343129515647,-1.4484608144760132 -5.494927751719952,-1.4484608144760132 c-1.2998232695460321,0 -2.6054623031616213,0.22606627118587497 -3.8587594601511954,0.6935426781177523 c-27.023917043209075,10.0195435577631 -68.71809895187616,16.464989597320557 -115.61351252675055,16.464989597320557 c-46.89638286888599,0 -88.59056477755308,-6.445446039557457 -115.61448182076217,-16.464989597320557 c-1.2465120989084244,-0.46747640693187714 -2.545366074442864,-0.6935426781177523 -3.8442200499773027,-0.6935426781177523 c-1.902724144756794,0 -3.8006018194556237,0.4930495145320893 -5.510436455905438,1.4566442089080809 c-2.8739567443728444,1.6305413405895235 -4.986048395633698,4.4589270411729816 -5.785715955197811,7.79979781806469 C2.9495616772770883,62.94177599943796 0,86.7963707689158 0,111.72196728469052 c0,115.56691909396649 62.24515354245901,209.24837270367146 139.03359443485735,209.24837270367146 C215.82009673923255,320.97033998836196 278.0652502816916,227.288886378657 278.0652502816916,111.72196728469052 zM55.67527873188257,137.7287947898022 c0,-10.361200275301933 11.81084753125906,-18.75838588690758 26.383213701546193,-18.75838588690758 c14.57139687627554,0 26.3822444075346,18.079164149045944 26.3822444075346,28.440364424347877 c0,10.359154426693918 -11.81084753125906,9.076407349467276 -26.3822444075346,9.076407349467276 C67.48612626314163,156.4871806767098 55.67527873188257,148.08794921649613 55.67527873188257,137.7287947898022 zM139.03359443485735,281.4118113037459 c-31.400279505550863,0 -56.854909543991084,-26.864038071870805 -56.854909543991084,-59.99860212731362 c0,-4.3177634872198105 0.5515282925963403,-8.470836161494256 1.4471559593081476,-12.497066222071648 c0.24620067894458772,-1.1006665511131288 1.0235744762420655,-1.9916336199045181 2.045210364460945,-2.3557946721315384 c1.0235744762420655,-0.3539318091869355 2.1498941177129747,-0.12581968939304353 2.9718554395437238,0.5994336421489717 c10.830891285538673,9.604236290335654 29.25523185789585,15.985238098740579 50.38971848666667,15.985238098740579 c21.134486628770826,0 39.558827201128004,-6.381001808404923 50.388749192655084,-15.985238098740579 c0.8229306158423425,-0.733436725974083 1.9492502573132515,-0.9605259214639664 2.9718554395437238,-0.5994336421489717 c1.0226051822304725,0.3559776577949525 1.7990096855163575,1.2551281210184098 2.045210364460945,2.3557946721315384 c0.8956276667118073,4.026230060577393 1.4481252533197402,8.179302734851838 1.4481252533197402,12.497066222071648 C195.88753468483685,254.5477732318751 170.43193535238504,281.4118113037459 139.03359443485735,281.4118113037459 zM169.62451344072818,147.4107733272425 c0,-10.361200275301933 11.81084753125906,-28.440364424347877 26.383213701546193,-28.440364424347877 c14.57139687627554,0 26.3822444075346,8.397185611605645 26.3822444075346,18.75838588690758 c0,10.359154426693918 -11.81084753125906,18.75838588690758 -26.3822444075346,18.75838588690758 C181.43536097198725,156.4871806767098 169.62451344072818,157.76992775393643 169.62451344072818,147.4107733272425 z" id="svg_3" fill="#242424" fill-opacity="1" stroke="none" stroke-opacity="1" filter=""/>
</g><g id="svg_4">
</g><g id="svg_5">
</g><g id="svg_6">
</g><g id="svg_7">
</g><g id="svg_8">
</g><g id="svg_9">
</g><g id="svg_10">
</g><g id="svg_11">
</g><g id="svg_12">
</g><g id="svg_13">
</g><g id="svg_14">
</g><g id="svg_15">
</g><g id="svg_16">
</g><g id="svg_17">
</g><g id="svg_18">
</g></g><defs><filter id="f199" xmlns:inkscape="http://www.inkscape.org/namespaces/inkscape" inkscape:label="Riddled" inkscape:menu="Textures" inkscape:menu-tooltip="Riddle the surface and add bump to images" height="1.3" y="-.15" width="1.3" x="-.15" color-interpolation-filters="sRGB">
            <feGaussianBlur stdDeviation=".5" in="SourceGraphic" result="result1"/>
            <feTurbulence type="fractalNoise" baseFrequency=".04" numOctaves="10" result="result0"/>
            <feGaussianBlur result="result8" stdDeviation="1"/>
            <feDisplacementMap in2="result0" in="result1" xChannelSelector="R" yChannelSelector="B" scale="20" result="result2"/>
            <feComposite result="result7" operator="in" in="result2" in2="result8"/>
            <feComposite in2="result7" result="fbSourceGraphic" k2=".15" in="result2" k1="2" operator="arithmetic"/>
            <feColorMatrix values="1 0 0 -1 0 1 0 1 -1 0 1 0 0 -1 0 -0.8 -1 0 3.7 -2.6 " in="fbSourceGraphic" result="fbSourceGraphicAlpha" type="matrix"/>
            <feGaussianBlur stdDeviation=".5" result="result9"/>
            <feSpecularLighting surfaceScale="10" specularExponent="3" result="result11" specularConstant=".7">
                <feDistantLight azimuth="235" elevation="55"/>
            </feSpecularLighting>
            <feDiffuseLighting in="result9" lighting-color="#fff" result="result6" diffuseConstant=".4" surfaceScale="50">
                <feDistantLight elevation="10" azimuth="235"/>
            </feDiffuseLighting>
            <feBlend id="feBlend3105" result="result10" mode="screen" in2="result11"/>
            <feComposite in2="fbSourceGraphic" in="result10" result="result2" operator="in"/>
            <feComposite k3=".9" k2="1" operator="arithmetic" in2="fbSourceGraphic"/>
        </filter></defs></svg>