<svg xmlns="http://www.w3.org/2000/svg" width="20.510204081632644" height="18.48979591836735" style=""><rect id="backgroundrect" width="100%" height="100%" x="0" y="0" fill="none" stroke="none" class="" style=""/>

 <g style="">
  <title>background</title>
  <rect fill="none" id="canvas_background" height="402" width="582" y="-1" x="-1"/>
 </g>
 <g style="" class="currentLayer">
  <title>Layer 1</title>
  <path id="svg_1" fill="none" d="m0.1662664810816904,-1.483793495513356 l36.39015417752364,0 l0,0.4381750603430348 l-36.39015417752364,0 l0,-0.4381750603430348 z" class=""/>
  <path fill="#444444" id="svg_2" d="m18.716086207067256,0.18967597449527152 l-16.676470398902893,0 c-1.0191176354885103,0 -1.8529411554336548,0.8205882132053376 -1.8529411554336548,1.8235293626785278 l0,10.941176176071167 c0,1.0029411494731904 0.8338235199451447,1.8235293626785278 1.8529411554336548,1.8235293626785278 l6.485294044017792,0 l0,1.8235293626785278 l-1.8529411554336548,0 l0,1.8235293626785278 l7.411764621734619,0 l0,-1.8235293626785278 l-1.8529411554336548,0 l0,-1.8235293626785278 l6.485294044017792,0 c1.0191176354885103,0 1.8529411554336548,-0.8205882132053376 1.8529411554336548,-1.8235293626785278 l0,-10.941176176071167 c0,-1.0029411494731904 -0.8338235199451447,-1.8235293626785278 -1.8529411554336548,-1.8235293626785278 zm0,12.764705538749695 l-16.676470398902893,0 l0,-10.941176176071167 l16.676470398902893,0 l0,10.941176176071167 z" class=""/>
  <rect stroke="null" id="svg_3" height="11.24631674889037" width="17.205873982584347" y="2.025740564638818" x="1.806165963887183" stroke-opacity="null" stroke-width="null" fill="#CFCA6D" class=""/>
 </g>
</svg>